<svg xmlns="http://www.w3.org/2000/svg" version="1.1" xmlns:xlink="http://www.w3.org/1999/xlink" xmlns:svgjs="http://svgjs.com/svgjs" width="1980" height="1080" preserveAspectRatio="none" viewBox="0 0 1980 1080"><g mask="url(&quot;#SvgjsMask1118&quot;)" fill="none"><rect width="1980" height="1080" x="0" y="0" fill="rgba(82, 86, 173, 1)"></rect><path d="M1092 914L1091 232" stroke-width="6" stroke="url(#SvgjsLinearGradient1119)" stroke-linecap="round" class="Up"></path><path d="M1029 521L1028 71" stroke-width="6" stroke="url(#SvgjsLinearGradient1120)" stroke-linecap="round" class="Down"></path><path d="M720 222L719 867" stroke-width="10" stroke="url(#SvgjsLinearGradient1119)" stroke-linecap="round" class="Up"></path><path d="M1577 1025L1576 1334" stroke-width="6" stroke="url(#SvgjsLinearGradient1121)" stroke-linecap="round" class="Up"></path><path d="M145 317L144 -399" stroke-width="10" stroke="url(#SvgjsLinearGradient1121)" stroke-linecap="round" class="Up"></path><path d="M1351 937L1350 237" stroke-width="10" stroke="url(#SvgjsLinearGradient1119)" stroke-linecap="round" class="Up"></path><path d="M689 489L688 1121" stroke-width="6" stroke="url(#SvgjsLinearGradient1122)" stroke-linecap="round" class="Down"></path><path d="M307 692L306 1102" stroke-width="10" stroke="url(#SvgjsLinearGradient1121)" stroke-linecap="round" class="Up"></path><path d="M1121 451L1120 757" stroke-width="6" stroke="url(#SvgjsLinearGradient1119)" stroke-linecap="round" class="Up"></path><path d="M1840 544L1839 -169" stroke-width="8" stroke="url(#SvgjsLinearGradient1121)" stroke-linecap="round" class="Up"></path><path d="M1267 39L1266 814" stroke-width="10" stroke="url(#SvgjsLinearGradient1121)" stroke-linecap="round" class="Up"></path><path d="M36 955L35 518" stroke-width="8" stroke="url(#SvgjsLinearGradient1119)" stroke-linecap="round" class="Up"></path><path d="M731 389L730 923" stroke-width="6" stroke="url(#SvgjsLinearGradient1122)" stroke-linecap="round" class="Down"></path><path d="M670 693L669 1112" stroke-width="6" stroke="url(#SvgjsLinearGradient1119)" stroke-linecap="round" class="Up"></path><path d="M1128 482L1127 763" stroke-width="6" stroke="url(#SvgjsLinearGradient1122)" stroke-linecap="round" class="Down"></path><path d="M1012 979L1011 1740" stroke-width="10" stroke="url(#SvgjsLinearGradient1119)" stroke-linecap="round" class="Up"></path><path d="M1517 61L1516 -293" stroke-width="8" stroke="url(#SvgjsLinearGradient1120)" stroke-linecap="round" class="Down"></path><path d="M46 766L45 -9" stroke-width="8" stroke="url(#SvgjsLinearGradient1122)" stroke-linecap="round" class="Down"></path><path d="M128 1010L127 1578" stroke-width="6" stroke="url(#SvgjsLinearGradient1120)" stroke-linecap="round" class="Down"></path><path d="M1628 196L1627 704" stroke-width="6" stroke="url(#SvgjsLinearGradient1122)" stroke-linecap="round" class="Down"></path><path d="M1375 779L1374 35" stroke-width="6" stroke="url(#SvgjsLinearGradient1122)" stroke-linecap="round" class="Down"></path><path d="M685 971L684 484" stroke-width="6" stroke="url(#SvgjsLinearGradient1122)" stroke-linecap="round" class="Down"></path><path d="M877 2L876 775" stroke-width="6" stroke="url(#SvgjsLinearGradient1119)" stroke-linecap="round" class="Up"></path><path d="M547 969L546 1557" stroke-width="8" stroke="url(#SvgjsLinearGradient1120)" stroke-linecap="round" class="Down"></path><path d="M1975 406L1974 -249" stroke-width="10" stroke="url(#SvgjsLinearGradient1120)" stroke-linecap="round" class="Down"></path><path d="M1349 884L1348 1533" stroke-width="10" stroke="url(#SvgjsLinearGradient1120)" stroke-linecap="round" class="Down"></path><path d="M1800 158L1799 -424" stroke-width="10" stroke="url(#SvgjsLinearGradient1121)" stroke-linecap="round" class="Up"></path><path d="M944 363L943 680" stroke-width="8" stroke="url(#SvgjsLinearGradient1119)" stroke-linecap="round" class="Up"></path><path d="M808 444L807 729" stroke-width="10" stroke="url(#SvgjsLinearGradient1122)" stroke-linecap="round" class="Down"></path><path d="M21 684L20 247" stroke-width="8" stroke="url(#SvgjsLinearGradient1120)" stroke-linecap="round" class="Down"></path><path d="M1281 383L1280 -274" stroke-width="6" stroke="url(#SvgjsLinearGradient1122)" stroke-linecap="round" class="Down"></path><path d="M907 603L906 1179" stroke-width="10" stroke="url(#SvgjsLinearGradient1119)" stroke-linecap="round" class="Up"></path><path d="M1766 1047L1765 1348" stroke-width="10" stroke="url(#SvgjsLinearGradient1119)" stroke-linecap="round" class="Up"></path><path d="M980 233L979 897" stroke-width="8" stroke="url(#SvgjsLinearGradient1121)" stroke-linecap="round" class="Up"></path><path d="M1601 658L1600 1418" stroke-width="6" stroke="url(#SvgjsLinearGradient1122)" stroke-linecap="round" class="Down"></path><path d="M1451 114L1450 -668" stroke-width="8" stroke="url(#SvgjsLinearGradient1119)" stroke-linecap="round" class="Up"></path><path d="M1608 990L1607 1629" stroke-width="8" stroke="url(#SvgjsLinearGradient1122)" stroke-linecap="round" class="Down"></path><path d="M618 404L617 -79" stroke-width="6" stroke="url(#SvgjsLinearGradient1120)" stroke-linecap="round" class="Down"></path><path d="M525 92L524 523" stroke-width="10" stroke="url(#SvgjsLinearGradient1121)" stroke-linecap="round" class="Up"></path><path d="M402 538L401 -47" stroke-width="10" stroke="url(#SvgjsLinearGradient1120)" stroke-linecap="round" class="Down"></path><path d="M288 18L287 -786" stroke-width="8" stroke="url(#SvgjsLinearGradient1120)" stroke-linecap="round" class="Down"></path><path d="M476 889L475 147" stroke-width="6" stroke="url(#SvgjsLinearGradient1121)" stroke-linecap="round" class="Up"></path><path d="M1093 882L1092 473" stroke-width="8" stroke="url(#SvgjsLinearGradient1121)" stroke-linecap="round" class="Up"></path><path d="M562 930L561 1300" stroke-width="10" stroke="url(#SvgjsLinearGradient1122)" stroke-linecap="round" class="Down"></path><path d="M300 17L299 687" stroke-width="10" stroke="url(#SvgjsLinearGradient1119)" stroke-linecap="round" class="Up"></path><path d="M628 294L627 1005" stroke-width="10" stroke="url(#SvgjsLinearGradient1119)" stroke-linecap="round" class="Up"></path><path d="M1813 813L1812 26" stroke-width="10" stroke="url(#SvgjsLinearGradient1121)" stroke-linecap="round" class="Up"></path><path d="M1135 624L1134 20" stroke-width="8" stroke="url(#SvgjsLinearGradient1120)" stroke-linecap="round" class="Down"></path><path d="M1118 987L1117 537" stroke-width="10" stroke="url(#SvgjsLinearGradient1122)" stroke-linecap="round" class="Down"></path><path d="M274 546L273 -46" stroke-width="10" stroke="url(#SvgjsLinearGradient1122)" stroke-linecap="round" class="Down"></path></g><defs><mask id="SvgjsMask1118"><rect width="1980" height="1080" fill="#ffffff"></rect></mask><linearGradient x1="0%" y1="100%" x2="0%" y2="0%" id="SvgjsLinearGradient1119"><stop stop-color="rgba(132, 120, 255, 0)" offset="0"></stop><stop stop-color="rgba(132, 120, 255, 1)" offset="1"></stop></linearGradient><linearGradient x1="0%" y1="0%" x2="0%" y2="100%" id="SvgjsLinearGradient1120"><stop stop-color="rgba(132, 120, 255, 0)" offset="0"></stop><stop stop-color="rgba(132, 120, 255, 1)" offset="1"></stop></linearGradient><linearGradient x1="0%" y1="100%" x2="0%" y2="0%" id="SvgjsLinearGradient1121"><stop stop-color="rgba(148, 120, 255, 0)" offset="0"></stop><stop stop-color="rgba(148, 120, 255, 1)" offset="1"></stop></linearGradient><linearGradient x1="0%" y1="0%" x2="0%" y2="100%" id="SvgjsLinearGradient1122"><stop stop-color="rgba(148, 120, 255, 0)" offset="0"></stop><stop stop-color="rgba(148, 120, 255, 1)" offset="1"></stop></linearGradient></defs></svg>